<svg xmlns="http://www.w3.org/2000/svg" width="850" height="128" viewBox="0 0 850 128" role="img">
<style>
  .f{font-family:-apple-system,'Segoe UI',Helvetica,Arial,sans-serif}
  .m{font-family:ui-monospace,'SF Mono',Menlo,Consolas,monospace}
  
</style>

<rect x="0" y="0" width="203.5" height="128" rx="6" fill="#1B2126" stroke="#2E363D"/>
<text x="16" y="24" class="f" font-size="11" letter-spacing="1.4" fill="#9AA1A6">YEARS IN PRODUCTION</text><circle cx="181.5" cy="15" r="1.4" fill="#68707A"/><circle cx="181.5" cy="20" r="1.4" fill="#68707A"/><circle cx="181.5" cy="25" r="1.4" fill="#68707A"/>
<text x="16" y="78" class="f" font-size="40" font-weight="700" fill="#E8ECEE">14</text>
<text x="16" y="106" class="f" font-size="11" fill="#68707A">e-commerce · platform · SRE</text>
<rect x="215.5" y="0" width="203.5" height="128" rx="6" fill="#1B2126" stroke="#2E363D"/>
<text x="231.5" y="24" class="f" font-size="11" letter-spacing="1.4" fill="#9AA1A6">SERVICES UP</text><circle cx="397" cy="15" r="1.4" fill="#68707A"/><circle cx="397" cy="20" r="1.4" fill="#68707A"/><circle cx="397" cy="25" r="1.4" fill="#68707A"/>
<text x="231.5" y="78" class="f" font-size="40" font-weight="700" fill="#1CE783">8/8</text>
<text x="231.5" y="106" class="f" font-size="11" fill="#68707A">live side projects · synthetics</text>
<rect x="431" y="0" width="203.5" height="128" rx="6" fill="#1B2126" stroke="#2E363D"/>
<text x="447" y="24" class="f" font-size="11" letter-spacing="1.4" fill="#9AA1A6">ARTICLES &amp; TALKS</text><circle cx="612.5" cy="15" r="1.4" fill="#68707A"/><circle cx="612.5" cy="20" r="1.4" fill="#68707A"/><circle cx="612.5" cy="25" r="1.4" fill="#68707A"/>
<text x="447" y="78" class="f" font-size="40" font-weight="700" fill="#E8ECEE">15</text>
<text x="447" y="106" class="f" font-size="11" fill="#68707A">blog · dev.to · presentations</text>
<rect x="646.5" y="0" width="203.5" height="128" rx="6" fill="#1B2126" stroke="#2E363D"/>
<text x="662.5" y="24" class="f" font-size="11" letter-spacing="1.4" fill="#9AA1A6">PEAK-SEASON SEV-1S</text><circle cx="828" cy="15" r="1.4" fill="#68707A"/><circle cx="828" cy="20" r="1.4" fill="#68707A"/><circle cx="828" cy="25" r="1.4" fill="#68707A"/>
<text x="662.5" y="78" class="f" font-size="40" font-weight="700" fill="#1CE783">0</text>
<text x="662.5" y="106" class="f" font-size="11" fill="#68707A">LEGO.com · Black Friday scale</text>
</svg>