<svg xmlns="http://www.w3.org/2000/svg" width="850" height="128" viewBox="0 0 850 128" role="img">
<style>
  .f{font-family:'Geist','Helvetica Neue',-apple-system,system-ui,sans-serif}
  .m{font-family:'JetBrains Mono','SFMono-Regular',ui-monospace,Menlo,monospace}
  .s{font-family:'Playfair Display',Georgia,'Times New Roman',serif}
  
</style>

<rect x="0" y="0" width="203.5" height="128" rx="6" fill="#111A2D" stroke="#243353"/>
<text x="16" y="24" class="m" font-size="10" letter-spacing="1.8" fill="#9AA6B8">&#8212; YEARS IN PRODUCTION</text><circle cx="181.5" cy="15" r="1.4" fill="#6E7A8E"/><circle cx="181.5" cy="20" r="1.4" fill="#6E7A8E"/><circle cx="181.5" cy="25" r="1.4" fill="#6E7A8E"/>
<text x="16" y="78" class="m" font-size="38" font-weight="700" fill="#E6EBF2">14</text>
<text x="16" y="106" class="f" font-size="11" fill="#6E7A8E">e-commerce · platform · SRE</text>
<rect x="215.5" y="0" width="203.5" height="128" rx="6" fill="#111A2D" stroke="#243353"/>
<text x="231.5" y="24" class="m" font-size="10" letter-spacing="1.8" fill="#9AA6B8">&#8212; SERVICES UP</text><circle cx="397" cy="15" r="1.4" fill="#6E7A8E"/><circle cx="397" cy="20" r="1.4" fill="#6E7A8E"/><circle cx="397" cy="25" r="1.4" fill="#6E7A8E"/>
<text x="231.5" y="78" class="m" font-size="38" font-weight="700" fill="#4ECB8E">8/8</text>
<text x="231.5" y="106" class="f" font-size="11" fill="#6E7A8E">live side projects · synthetics</text>
<rect x="431" y="0" width="203.5" height="128" rx="6" fill="#111A2D" stroke="#243353"/>
<text x="447" y="24" class="m" font-size="10" letter-spacing="1.8" fill="#9AA6B8">&#8212; ARTICLES &amp; TALKS</text><circle cx="612.5" cy="15" r="1.4" fill="#6E7A8E"/><circle cx="612.5" cy="20" r="1.4" fill="#6E7A8E"/><circle cx="612.5" cy="25" r="1.4" fill="#6E7A8E"/>
<text x="447" y="78" class="m" font-size="38" font-weight="700" fill="#E6EBF2">15</text>
<text x="447" y="106" class="f" font-size="11" fill="#6E7A8E">blog · dev.to · presentations</text>
<rect x="646.5" y="0" width="203.5" height="128" rx="6" fill="#111A2D" stroke="#243353"/>
<text x="662.5" y="24" class="m" font-size="10" letter-spacing="1.8" fill="#9AA6B8">&#8212; PEAK-SEASON SEV-1S</text><circle cx="828" cy="15" r="1.4" fill="#6E7A8E"/><circle cx="828" cy="20" r="1.4" fill="#6E7A8E"/><circle cx="828" cy="25" r="1.4" fill="#6E7A8E"/>
<text x="662.5" y="78" class="m" font-size="38" font-weight="700" fill="#4ECB8E">0</text>
<text x="662.5" y="106" class="f" font-size="11" fill="#6E7A8E">LEGO.com · Black Friday scale</text>
</svg>