<svg xmlns="http://www.w3.org/2000/svg" width="850" height="210" viewBox="0 0 850 210" role="img">
<style>
  .f{font-family:'Geist','Helvetica Neue',-apple-system,system-ui,sans-serif}
  .m{font-family:'JetBrains Mono','SFMono-Regular',ui-monospace,Menlo,monospace}
  .s{font-family:'Playfair Display',Georgia,'Times New Roman',serif}
  
</style>
<rect x="0" y="0" width="850" height="210" rx="6" fill="#111A2D" stroke="#243353"/><text x="16" y="24" class="m" font-size="10" letter-spacing="1.8" fill="#9AA6B8">&#8212; LOGS — LATEST ARTICLES</text><circle cx="828" cy="15" r="1.4" fill="#6E7A8E"/><circle cx="828" cy="20" r="1.4" fill="#6E7A8E"/><circle cx="828" cy="25" r="1.4" fill="#6E7A8E"/>

<rect x="24" y="50" width="53.599999999999994" height="18" rx="9" fill="rgba(255,214,102,0.12)"/><text x="50.8" y="62.5" class="m" font-size="10" fill="#FFD666" text-anchor="middle">SERIES</text>
<text x="78" y="63" class="m" font-size="11" fill="#6E7A8E">weekly</text>
<text x="160" y="63" class="f" font-size="12" fill="#E6EBF2">Kiro weekly reading list — AWS Builders</text>
<rect x="732.8" y="50" width="93.19999999999999" height="18" rx="9" fill="rgba(255,214,102,0.12)"/><text x="779.4" y="62.5" class="f" font-size="10" fill="#FFD666" text-anchor="middle">AWS Builders</text>
<rect x="9" y="76" width="832" height="30" fill="#0B1120"/>
<rect x="24" y="80" width="40.4" height="18" rx="9" fill="rgba(61,214,196,0.12)"/><text x="44.2" y="92.5" class="m" font-size="10" fill="#3DD6C4" text-anchor="middle">INFO</text>
<text x="78" y="93" class="m" font-size="11" fill="#6E7A8E">2026-06-15</text>
<text x="160" y="93" class="f" font-size="12" fill="#E6EBF2">What is Kiro — and How to Get the Most Out of It</text>
<rect x="732.8" y="80" width="93.19999999999999" height="18" rx="9" fill="rgba(255,214,102,0.12)"/><text x="779.4" y="92.5" class="f" font-size="10" fill="#FFD666" text-anchor="middle">Presentation</text>

<rect x="24" y="110" width="40.4" height="18" rx="9" fill="rgba(61,214,196,0.12)"/><text x="44.2" y="122.5" class="m" font-size="10" fill="#3DD6C4" text-anchor="middle">INFO</text>
<text x="78" y="123" class="m" font-size="11" fill="#6E7A8E">2026-05-31</text>
<text x="160" y="123" class="f" font-size="12" fill="#E6EBF2">How I Use Kiro: A Teammate, Not an Autopilot</text>
<rect x="785.6" y="110" width="40.4" height="18" rx="9" fill="rgba(255,214,102,0.12)"/><text x="805.8000000000001" y="122.5" class="f" font-size="10" fill="#FFD666" text-anchor="middle">Blog</text>
<rect x="9" y="136" width="832" height="30" fill="#0B1120"/>
<rect x="24" y="140" width="40.4" height="18" rx="9" fill="rgba(61,214,196,0.12)"/><text x="44.2" y="152.5" class="m" font-size="10" fill="#3DD6C4" text-anchor="middle">INFO</text>
<text x="78" y="153" class="m" font-size="11" fill="#6E7A8E">2026-05-26</text>
<text x="160" y="153" class="f" font-size="12" fill="#E6EBF2">Get the Best Out of Kiro</text>
<rect x="785.6" y="140" width="40.4" height="18" rx="9" fill="rgba(255,214,102,0.12)"/><text x="805.8000000000001" y="152.5" class="f" font-size="10" fill="#FFD666" text-anchor="middle">Blog</text>

<rect x="24" y="170" width="40.4" height="18" rx="9" fill="rgba(61,214,196,0.12)"/><text x="44.2" y="182.5" class="m" font-size="10" fill="#3DD6C4" text-anchor="middle">INFO</text>
<text x="78" y="183" class="m" font-size="11" fill="#6E7A8E">2026-05-03</text>
<text x="160" y="183" class="f" font-size="12" fill="#E6EBF2">KiroHub: Generate a Kiro Skill in 60 Seconds with Bedrock Registry and Agen…</text>
<rect x="785.6" y="170" width="40.4" height="18" rx="9" fill="rgba(255,214,102,0.12)"/><text x="805.8000000000001" y="182.5" class="f" font-size="10" fill="#FFD666" text-anchor="middle">Blog</text>
</svg>