<svg xmlns="http://www.w3.org/2000/svg" width="850" height="210" viewBox="0 0 850 210" role="img">
<style>
  .f{font-family:-apple-system,'Segoe UI',Helvetica,Arial,sans-serif}
  .m{font-family:ui-monospace,'SF Mono',Menlo,Consolas,monospace}
  
</style>
<rect x="0" y="0" width="850" height="210" rx="6" fill="#1B2126" stroke="#2E363D"/><text x="16" y="24" class="f" font-size="11" letter-spacing="1.4" fill="#9AA1A6">LOGS — LATEST ARTICLES</text><circle cx="828" cy="15" r="1.4" fill="#68707A"/><circle cx="828" cy="20" r="1.4" fill="#68707A"/><circle cx="828" cy="25" r="1.4" fill="#68707A"/>

<rect x="24" y="50" width="53.599999999999994" height="18" rx="9" fill="rgba(255,214,102,0.10)"/><text x="50.8" y="62.5" class="m" font-size="10" fill="#FFD666" text-anchor="middle">SERIES</text>
<text x="78" y="63" class="m" font-size="11" fill="#68707A">weekly</text>
<text x="160" y="63" class="f" font-size="12" fill="#E8ECEE">Kiro weekly reading list — AWS Builders</text>
<rect x="732.8" y="50" width="93.19999999999999" height="18" rx="9" fill="rgba(255,214,102,0.10)"/><text x="779.4" y="62.5" class="f" font-size="10" fill="#FFD666" text-anchor="middle">AWS Builders</text>
<rect x="9" y="76" width="832" height="30" fill="#171C21"/>
<rect x="24" y="80" width="40.4" height="18" rx="9" fill="rgba(28,231,131,0.10)"/><text x="44.2" y="92.5" class="m" font-size="10" fill="#1CE783" text-anchor="middle">INFO</text>
<text x="78" y="93" class="m" font-size="11" fill="#68707A">2026-06-14</text>
<text x="160" y="93" class="f" font-size="12" fill="#E8ECEE">What is Kiro — and How to Get the Most Out of It</text>
<rect x="732.8" y="80" width="93.19999999999999" height="18" rx="9" fill="rgba(255,214,102,0.10)"/><text x="779.4" y="92.5" class="f" font-size="10" fill="#FFD666" text-anchor="middle">Presentation</text>

<rect x="24" y="110" width="40.4" height="18" rx="9" fill="rgba(28,231,131,0.10)"/><text x="44.2" y="122.5" class="m" font-size="10" fill="#1CE783" text-anchor="middle">INFO</text>
<text x="78" y="123" class="m" font-size="11" fill="#68707A">2026-05-30</text>
<text x="160" y="123" class="f" font-size="12" fill="#E8ECEE">How I Use Kiro: A Teammate, Not an Autopilot</text>
<rect x="785.6" y="110" width="40.4" height="18" rx="9" fill="rgba(255,214,102,0.10)"/><text x="805.8000000000001" y="122.5" class="f" font-size="10" fill="#FFD666" text-anchor="middle">Blog</text>
<rect x="9" y="136" width="832" height="30" fill="#171C21"/>
<rect x="24" y="140" width="40.4" height="18" rx="9" fill="rgba(28,231,131,0.10)"/><text x="44.2" y="152.5" class="m" font-size="10" fill="#1CE783" text-anchor="middle">INFO</text>
<text x="78" y="153" class="m" font-size="11" fill="#68707A">2026-05-25</text>
<text x="160" y="153" class="f" font-size="12" fill="#E8ECEE">Get the Best Out of Kiro</text>
<rect x="785.6" y="140" width="40.4" height="18" rx="9" fill="rgba(255,214,102,0.10)"/><text x="805.8000000000001" y="152.5" class="f" font-size="10" fill="#FFD666" text-anchor="middle">Blog</text>

<rect x="24" y="170" width="40.4" height="18" rx="9" fill="rgba(28,231,131,0.10)"/><text x="44.2" y="182.5" class="m" font-size="10" fill="#1CE783" text-anchor="middle">INFO</text>
<text x="78" y="183" class="m" font-size="11" fill="#68707A">2026-05-02</text>
<text x="160" y="183" class="f" font-size="12" fill="#E8ECEE">KiroHub: Generate a Kiro Skill in 60 Seconds with Bedrock Registry and Agen…</text>
<rect x="785.6" y="170" width="40.4" height="18" rx="9" fill="rgba(255,214,102,0.10)"/><text x="805.8000000000001" y="182.5" class="f" font-size="10" fill="#FFD666" text-anchor="middle">Blog</text>
</svg>