<svg xmlns="http://www.w3.org/2000/svg" width="850" height="336" viewBox="0 0 850 336" role="img">
<style>
  .f{font-family:'Geist','Helvetica Neue',-apple-system,system-ui,sans-serif}
  .m{font-family:'JetBrains Mono','SFMono-Regular',ui-monospace,Menlo,monospace}
  .s{font-family:'Playfair Display',Georgia,'Times New Roman',serif}
  
</style>
<rect x="0" y="0" width="850" height="336" rx="6" fill="#111A2D" stroke="#243353"/><text x="16" y="24" class="m" font-size="10" letter-spacing="1.8" fill="#9AA6B8">&#8212; SYNTHETICS — SIDE-PROJECT CHECKS (LIVE)</text><circle cx="828" cy="15" r="1.4" fill="#6E7A8E"/><circle cx="828" cy="20" r="1.4" fill="#6E7A8E"/><circle cx="828" cy="25" r="1.4" fill="#6E7A8E"/>
<text x="30" y="52" class="f" font-size="10" letter-spacing="1" fill="#6E7A8E">SERVICE</text>
<text x="330" y="52" class="f" font-size="10" letter-spacing="1" fill="#6E7A8E">TAG</text>
<text x="470" y="52" class="f" font-size="10" letter-spacing="1" fill="#6E7A8E">RESULT</text>
<text x="654" y="52" class="f" font-size="10" letter-spacing="1" fill="#6E7A8E">RESPONSE TIME</text>

<circle cx="30" cy="78" r="4" fill="#4ECB8E"/><circle cx="30" cy="78" r="7" fill="none" stroke="#4ECB8E" stroke-opacity="0.25"/>
<text x="48" y="82" class="m" font-size="12" fill="#E6EBF2">amllamojha.com</text>
<text x="330" y="82" class="m" font-size="11" fill="#6E7A8E">portfolio</text>
<rect x="462" y="69" width="53.599999999999994" height="18" rx="9" fill="rgba(78,203,142,0.10)"/><text x="488.8" y="81.5" class="m" font-size="10" fill="#4ECB8E" text-anchor="middle">200 OK</text>
<rect x="654" y="74" width="150" height="8" rx="4" fill="#0B1120" stroke="#243353" stroke-width="0.5"/>
<rect x="654" y="74" width="139" height="8" rx="4" fill="#3DD6C4" fill-opacity="0.85"/>
<text x="820" y="82" class="m" font-size="11" fill="#9AA6B8" text-anchor="end">643 ms</text>
<rect x="9" y="96" width="832" height="32" fill="#0B1120"/>
<circle cx="30" cy="110" r="4" fill="#4ECB8E"/><circle cx="30" cy="110" r="7" fill="none" stroke="#4ECB8E" stroke-opacity="0.25"/>
<text x="48" y="114" class="m" font-size="12" fill="#E6EBF2">kirohub.dev</text>
<text x="330" y="114" class="m" font-size="11" fill="#6E7A8E">community</text>
<rect x="462" y="101" width="53.599999999999994" height="18" rx="9" fill="rgba(78,203,142,0.10)"/><text x="488.8" y="113.5" class="m" font-size="10" fill="#4ECB8E" text-anchor="middle">200 OK</text>
<rect x="654" y="106" width="150" height="8" rx="4" fill="#0B1120" stroke="#243353" stroke-width="0.5"/>
<rect x="654" y="106" width="112" height="8" rx="4" fill="#3DD6C4" fill-opacity="0.85"/>
<text x="820" y="114" class="m" font-size="11" fill="#9AA6B8" text-anchor="end">184 ms</text>

<circle cx="30" cy="142" r="4" fill="#4ECB8E"/><circle cx="30" cy="142" r="7" fill="none" stroke="#4ECB8E" stroke-opacity="0.25"/>
<text x="48" y="146" class="m" font-size="12" fill="#E6EBF2">waypoint</text>
<text x="330" y="146" class="m" font-size="11" fill="#6E7A8E">ai-rpg</text>
<rect x="462" y="133" width="53.599999999999994" height="18" rx="9" fill="rgba(78,203,142,0.10)"/><text x="488.8" y="145.5" class="m" font-size="10" fill="#4ECB8E" text-anchor="middle">200 OK</text>
<rect x="654" y="138" width="150" height="8" rx="4" fill="#0B1120" stroke="#243353" stroke-width="0.5"/>
<rect x="654" y="138" width="150" height="8" rx="4" fill="#3DD6C4" fill-opacity="0.85"/>
<text x="820" y="146" class="m" font-size="11" fill="#9AA6B8" text-anchor="end">1070 ms</text>
<rect x="9" y="160" width="832" height="32" fill="#0B1120"/>
<circle cx="30" cy="174" r="4" fill="#4ECB8E"/><circle cx="30" cy="174" r="7" fill="none" stroke="#4ECB8E" stroke-opacity="0.25"/>
<text x="48" y="178" class="m" font-size="12" fill="#E6EBF2">slimelord</text>
<text x="330" y="178" class="m" font-size="11" fill="#6E7A8E">game</text>
<rect x="462" y="165" width="53.599999999999994" height="18" rx="9" fill="rgba(78,203,142,0.10)"/><text x="488.8" y="177.5" class="m" font-size="10" fill="#4ECB8E" text-anchor="middle">200 OK</text>
<rect x="654" y="170" width="150" height="8" rx="4" fill="#0B1120" stroke="#243353" stroke-width="0.5"/>
<rect x="654" y="170" width="128" height="8" rx="4" fill="#3DD6C4" fill-opacity="0.85"/>
<text x="820" y="178" class="m" font-size="11" fill="#9AA6B8" text-anchor="end">376 ms</text>

<circle cx="30" cy="206" r="4" fill="#4ECB8E"/><circle cx="30" cy="206" r="7" fill="none" stroke="#4ECB8E" stroke-opacity="0.25"/>
<text x="48" y="210" class="m" font-size="12" fill="#E6EBF2">twitch-reels</text>
<text x="330" y="210" class="m" font-size="11" fill="#6E7A8E">serverless</text>
<rect x="462" y="197" width="53.599999999999994" height="18" rx="9" fill="rgba(78,203,142,0.10)"/><text x="488.8" y="209.5" class="m" font-size="10" fill="#4ECB8E" text-anchor="middle">200 OK</text>
<rect x="654" y="202" width="150" height="8" rx="4" fill="#0B1120" stroke="#243353" stroke-width="0.5"/>
<rect x="654" y="202" width="131" height="8" rx="4" fill="#3DD6C4" fill-opacity="0.85"/>
<text x="820" y="210" class="m" font-size="11" fill="#9AA6B8" text-anchor="end">447 ms</text>
<rect x="9" y="224" width="832" height="32" fill="#0B1120"/>
<circle cx="30" cy="238" r="4" fill="#4ECB8E"/><circle cx="30" cy="238" r="7" fill="none" stroke="#4ECB8E" stroke-opacity="0.25"/>
<text x="48" y="242" class="m" font-size="12" fill="#E6EBF2">watercolor-helper</text>
<text x="330" y="242" class="m" font-size="11" fill="#6E7A8E">design-tool</text>
<rect x="462" y="229" width="53.599999999999994" height="18" rx="9" fill="rgba(78,203,142,0.10)"/><text x="488.8" y="241.5" class="m" font-size="10" fill="#4ECB8E" text-anchor="middle">200 OK</text>
<rect x="654" y="234" width="150" height="8" rx="4" fill="#0B1120" stroke="#243353" stroke-width="0.5"/>
<rect x="654" y="234" width="138" height="8" rx="4" fill="#3DD6C4" fill-opacity="0.85"/>
<text x="820" y="242" class="m" font-size="11" fill="#9AA6B8" text-anchor="end">621 ms</text>

<circle cx="30" cy="270" r="4" fill="#4ECB8E"/><circle cx="30" cy="270" r="7" fill="none" stroke="#4ECB8E" stroke-opacity="0.25"/>
<text x="48" y="274" class="m" font-size="12" fill="#E6EBF2">approve-please</text>
<text x="330" y="274" class="m" font-size="11" fill="#6E7A8E">productivity</text>
<rect x="462" y="261" width="53.599999999999994" height="18" rx="9" fill="rgba(78,203,142,0.10)"/><text x="488.8" y="273.5" class="m" font-size="10" fill="#4ECB8E" text-anchor="middle">200 OK</text>
<rect x="654" y="266" width="150" height="8" rx="4" fill="#0B1120" stroke="#243353" stroke-width="0.5"/>
<rect x="654" y="266" width="134" height="8" rx="4" fill="#3DD6C4" fill-opacity="0.85"/>
<text x="820" y="274" class="m" font-size="11" fill="#9AA6B8" text-anchor="end">507 ms</text>
<rect x="9" y="288" width="832" height="32" fill="#0B1120"/>
<circle cx="30" cy="302" r="4" fill="#4ECB8E"/><circle cx="30" cy="302" r="7" fill="none" stroke="#4ECB8E" stroke-opacity="0.25"/>
<text x="48" y="306" class="m" font-size="12" fill="#E6EBF2">novibenocode.com</text>
<text x="330" y="306" class="m" font-size="11" fill="#6E7A8E">micro-site</text>
<rect x="462" y="293" width="53.599999999999994" height="18" rx="9" fill="rgba(78,203,142,0.10)"/><text x="488.8" y="305.5" class="m" font-size="10" fill="#4ECB8E" text-anchor="middle">200 OK</text>
<rect x="654" y="298" width="150" height="8" rx="4" fill="#0B1120" stroke="#243353" stroke-width="0.5"/>
<rect x="654" y="298" width="138" height="8" rx="4" fill="#3DD6C4" fill-opacity="0.85"/>
<text x="820" y="306" class="m" font-size="11" fill="#9AA6B8" text-anchor="end">618 ms</text>
</svg>