<svg xmlns="http://www.w3.org/2000/svg" width="850" height="336" viewBox="0 0 850 336" role="img">
<style>
  .f{font-family:-apple-system,'Segoe UI',Helvetica,Arial,sans-serif}
  .m{font-family:ui-monospace,'SF Mono',Menlo,Consolas,monospace}
  
</style>
<rect x="0" y="0" width="850" height="336" rx="6" fill="#1B2126" stroke="#2E363D"/><text x="16" y="24" class="f" font-size="11" letter-spacing="1.4" fill="#9AA1A6">SYNTHETICS — SIDE-PROJECT CHECKS (LIVE)</text><circle cx="828" cy="15" r="1.4" fill="#68707A"/><circle cx="828" cy="20" r="1.4" fill="#68707A"/><circle cx="828" cy="25" r="1.4" fill="#68707A"/>
<text x="30" y="52" class="f" font-size="10" letter-spacing="1" fill="#68707A">SERVICE</text>
<text x="330" y="52" class="f" font-size="10" letter-spacing="1" fill="#68707A">TAG</text>
<text x="470" y="52" class="f" font-size="10" letter-spacing="1" fill="#68707A">RESULT</text>
<text x="654" y="52" class="f" font-size="10" letter-spacing="1" fill="#68707A">RESPONSE TIME</text>

<circle cx="30" cy="78" r="4" fill="#1CE783"/><circle cx="30" cy="78" r="7" fill="none" stroke="#1CE783" stroke-opacity="0.25"/>
<text x="48" y="82" class="m" font-size="12" fill="#E8ECEE">amllamojha.com</text>
<text x="330" y="82" class="m" font-size="11" fill="#68707A">portfolio</text>
<rect x="462" y="69" width="53.599999999999994" height="18" rx="9" fill="rgba(28,231,131,0.10)"/><text x="488.8" y="81.5" class="m" font-size="10" fill="#1CE783" text-anchor="middle">200 OK</text>
<rect x="654" y="74" width="150" height="8" rx="4" fill="#171C21" stroke="#2E363D" stroke-width="0.5"/>
<rect x="654" y="74" width="120" height="8" rx="4" fill="#1CE783" fill-opacity="0.85"/>
<text x="820" y="82" class="m" font-size="11" fill="#9AA1A6" text-anchor="end">286 ms</text>
<rect x="9" y="96" width="832" height="32" fill="#171C21"/>
<circle cx="30" cy="110" r="4" fill="#1CE783"/><circle cx="30" cy="110" r="7" fill="none" stroke="#1CE783" stroke-opacity="0.25"/>
<text x="48" y="114" class="m" font-size="12" fill="#E8ECEE">kirohub.dev</text>
<text x="330" y="114" class="m" font-size="11" fill="#68707A">community</text>
<rect x="462" y="101" width="53.599999999999994" height="18" rx="9" fill="rgba(28,231,131,0.10)"/><text x="488.8" y="113.5" class="m" font-size="10" fill="#1CE783" text-anchor="middle">200 OK</text>
<rect x="654" y="106" width="150" height="8" rx="4" fill="#171C21" stroke="#2E363D" stroke-width="0.5"/>
<rect x="654" y="106" width="104" height="8" rx="4" fill="#1CE783" fill-opacity="0.85"/>
<text x="820" y="114" class="m" font-size="11" fill="#9AA1A6" text-anchor="end">131 ms</text>

<circle cx="30" cy="142" r="4" fill="#1CE783"/><circle cx="30" cy="142" r="7" fill="none" stroke="#1CE783" stroke-opacity="0.25"/>
<text x="48" y="146" class="m" font-size="12" fill="#E8ECEE">waypoint</text>
<text x="330" y="146" class="m" font-size="11" fill="#68707A">ai-rpg</text>
<rect x="462" y="133" width="53.599999999999994" height="18" rx="9" fill="rgba(28,231,131,0.10)"/><text x="488.8" y="145.5" class="m" font-size="10" fill="#1CE783" text-anchor="middle">200 OK</text>
<rect x="654" y="138" width="150" height="8" rx="4" fill="#171C21" stroke="#2E363D" stroke-width="0.5"/>
<rect x="654" y="138" width="142" height="8" rx="4" fill="#1CE783" fill-opacity="0.85"/>
<text x="820" y="146" class="m" font-size="11" fill="#9AA1A6" text-anchor="end">808 ms</text>
<rect x="9" y="160" width="832" height="32" fill="#171C21"/>
<circle cx="30" cy="174" r="4" fill="#1CE783"/><circle cx="30" cy="174" r="7" fill="none" stroke="#1CE783" stroke-opacity="0.25"/>
<text x="48" y="178" class="m" font-size="12" fill="#E8ECEE">slimelord</text>
<text x="330" y="178" class="m" font-size="11" fill="#68707A">game</text>
<rect x="462" y="165" width="53.599999999999994" height="18" rx="9" fill="rgba(28,231,131,0.10)"/><text x="488.8" y="177.5" class="m" font-size="10" fill="#1CE783" text-anchor="middle">200 OK</text>
<rect x="654" y="170" width="150" height="8" rx="4" fill="#171C21" stroke="#2E363D" stroke-width="0.5"/>
<rect x="654" y="170" width="116" height="8" rx="4" fill="#1CE783" fill-opacity="0.85"/>
<text x="820" y="178" class="m" font-size="11" fill="#9AA1A6" text-anchor="end">232 ms</text>

<circle cx="30" cy="206" r="4" fill="#1CE783"/><circle cx="30" cy="206" r="7" fill="none" stroke="#1CE783" stroke-opacity="0.25"/>
<text x="48" y="210" class="m" font-size="12" fill="#E8ECEE">twitch-reels</text>
<text x="330" y="210" class="m" font-size="11" fill="#68707A">serverless</text>
<rect x="462" y="197" width="53.599999999999994" height="18" rx="9" fill="rgba(28,231,131,0.10)"/><text x="488.8" y="209.5" class="m" font-size="10" fill="#1CE783" text-anchor="middle">200 OK</text>
<rect x="654" y="202" width="150" height="8" rx="4" fill="#171C21" stroke="#2E363D" stroke-width="0.5"/>
<rect x="654" y="202" width="142" height="8" rx="4" fill="#1CE783" fill-opacity="0.85"/>
<text x="820" y="210" class="m" font-size="11" fill="#9AA1A6" text-anchor="end">806 ms</text>
<rect x="9" y="224" width="832" height="32" fill="#171C21"/>
<circle cx="30" cy="238" r="4" fill="#1CE783"/><circle cx="30" cy="238" r="7" fill="none" stroke="#1CE783" stroke-opacity="0.25"/>
<text x="48" y="242" class="m" font-size="12" fill="#E8ECEE">watercolor-helper</text>
<text x="330" y="242" class="m" font-size="11" fill="#68707A">design-tool</text>
<rect x="462" y="229" width="53.599999999999994" height="18" rx="9" fill="rgba(28,231,131,0.10)"/><text x="488.8" y="241.5" class="m" font-size="10" fill="#1CE783" text-anchor="middle">200 OK</text>
<rect x="654" y="234" width="150" height="8" rx="4" fill="#171C21" stroke="#2E363D" stroke-width="0.5"/>
<rect x="654" y="234" width="129" height="8" rx="4" fill="#1CE783" fill-opacity="0.85"/>
<text x="820" y="242" class="m" font-size="11" fill="#9AA1A6" text-anchor="end">436 ms</text>

<circle cx="30" cy="270" r="4" fill="#1CE783"/><circle cx="30" cy="270" r="7" fill="none" stroke="#1CE783" stroke-opacity="0.25"/>
<text x="48" y="274" class="m" font-size="12" fill="#E8ECEE">approve-please</text>
<text x="330" y="274" class="m" font-size="11" fill="#68707A">productivity</text>
<rect x="462" y="261" width="53.599999999999994" height="18" rx="9" fill="rgba(28,231,131,0.10)"/><text x="488.8" y="273.5" class="m" font-size="10" fill="#1CE783" text-anchor="middle">200 OK</text>
<rect x="654" y="266" width="150" height="8" rx="4" fill="#171C21" stroke="#2E363D" stroke-width="0.5"/>
<rect x="654" y="266" width="118" height="8" rx="4" fill="#1CE783" fill-opacity="0.85"/>
<text x="820" y="274" class="m" font-size="11" fill="#9AA1A6" text-anchor="end">261 ms</text>
<rect x="9" y="288" width="832" height="32" fill="#171C21"/>
<circle cx="30" cy="302" r="4" fill="#1CE783"/><circle cx="30" cy="302" r="7" fill="none" stroke="#1CE783" stroke-opacity="0.25"/>
<text x="48" y="306" class="m" font-size="12" fill="#E8ECEE">novibenocode.com</text>
<text x="330" y="306" class="m" font-size="11" fill="#68707A">micro-site</text>
<rect x="462" y="293" width="53.599999999999994" height="18" rx="9" fill="rgba(28,231,131,0.10)"/><text x="488.8" y="305.5" class="m" font-size="10" fill="#1CE783" text-anchor="middle">200 OK</text>
<rect x="654" y="298" width="150" height="8" rx="4" fill="#171C21" stroke="#2E363D" stroke-width="0.5"/>
<rect x="654" y="298" width="150" height="8" rx="4" fill="#1CE783" fill-opacity="0.85"/>
<text x="820" y="306" class="m" font-size="11" fill="#9AA1A6" text-anchor="end">1174 ms</text>
</svg>