<svg xmlns="http://www.w3.org/2000/svg" width="850" height="96" viewBox="0 0 850 96" role="img">
<style>
  .f{font-family:'Geist','Helvetica Neue',-apple-system,system-ui,sans-serif}
  .m{font-family:'JetBrains Mono','SFMono-Regular',ui-monospace,Menlo,monospace}
  .s{font-family:'Playfair Display',Georgia,'Times New Roman',serif}
  
</style>
<rect x="0" y="0" width="850" height="96" rx="6" fill="#111A2D" stroke="#243353"/><text x="16" y="24" class="m" font-size="10" letter-spacing="1.8" fill="#9AA6B8">&#8212; APM — INSTRUMENTED STACK</text><circle cx="828" cy="15" r="1.4" fill="#6E7A8E"/><circle cx="828" cy="20" r="1.4" fill="#6E7A8E"/><circle cx="828" cy="25" r="1.4" fill="#6E7A8E"/>
<rect x="16" y="31" width="50.46" height="22" rx="11" fill="#0B1120" stroke="#243353"/>
<circle cx="29" cy="42" r="3" fill="#3DD6C4"/>
<text x="39" y="46" class="f" font-size="11" fill="#E6EBF2">AWS</text>
<rect x="74.46000000000001" y="31" width="98.2" height="22" rx="11" fill="#0B1120" stroke="#243353"/>
<circle cx="87.46000000000001" cy="42" r="3" fill="#3DD6C4"/>
<text x="97.46000000000001" y="46" class="f" font-size="11" fill="#E6EBF2">Serverless</text>
<rect x="180.66000000000003" y="31" width="91.38" height="22" rx="11" fill="#0B1120" stroke="#243353"/>
<circle cx="193.66000000000003" cy="42" r="3" fill="#3DD6C4"/>
<text x="203.66000000000003" y="46" class="f" font-size="11" fill="#E6EBF2">Terraform</text>
<rect x="280.04" y="31" width="105.02" height="22" rx="11" fill="#0B1120" stroke="#243353"/>
<circle cx="293.04" cy="42" r="3" fill="#3DD6C4"/>
<text x="303.04" y="46" class="f" font-size="11" fill="#E6EBF2">ECS Fargate</text>
<rect x="393.06" y="31" width="98.2" height="22" rx="11" fill="#0B1120" stroke="#243353"/>
<circle cx="406.06" cy="42" r="3" fill="#3DD6C4"/>
<text x="416.06" y="46" class="f" font-size="11" fill="#E6EBF2">TypeScript</text>
<rect x="499.26" y="31" width="77.74000000000001" height="22" rx="11" fill="#0B1120" stroke="#243353"/>
<circle cx="512.26" cy="42" r="3" fill="#3DD6C4"/>
<text x="522.26" y="46" class="f" font-size="11" fill="#E6EBF2">Node.js</text>
<rect x="585" y="31" width="70.92" height="22" rx="11" fill="#0B1120" stroke="#243353"/>
<circle cx="598" cy="42" r="3" fill="#3DD6C4"/>
<text x="608" y="46" class="f" font-size="11" fill="#E6EBF2">Docker</text>
<rect x="663.92" y="31" width="91.38" height="22" rx="11" fill="#0B1120" stroke="#243353"/>
<circle cx="676.92" cy="42" r="3" fill="#3DD6C4"/>
<text x="686.92" y="46" class="f" font-size="11" fill="#E6EBF2">New Relic</text>
<rect x="16" y="61" width="98.2" height="22" rx="11" fill="#0B1120" stroke="#243353"/>
<circle cx="29" cy="72" r="3" fill="#3DD6C4"/>
<text x="39" y="76" class="f" font-size="11" fill="#E6EBF2">CloudWatch</text>
<rect x="122.2" y="61" width="77.74000000000001" height="22" rx="11" fill="#0B1120" stroke="#243353"/>
<circle cx="135.2" cy="72" r="3" fill="#3DD6C4"/>
<text x="145.2" y="76" class="f" font-size="11" fill="#E6EBF2">Bedrock</text>
<rect x="207.94" y="61" width="64.1" height="22" rx="11" fill="#0B1120" stroke="#243353"/>
<circle cx="220.94" cy="72" r="3" fill="#3DD6C4"/>
<text x="230.94" y="76" class="f" font-size="11" fill="#E6EBF2">CI/CD</text>
<rect x="280.03999999999996" y="61" width="91.38" height="22" rx="11" fill="#0B1120" stroke="#243353"/>
<circle cx="293.03999999999996" cy="72" r="3" fill="#3DD6C4"/>
<text x="303.03999999999996" y="76" class="f" font-size="11" fill="#E6EBF2">GenAI Ops</text>
</svg>